<?xml version="1.0" encoding="UTF-8"?>
<svg width="156px" height="50px" viewBox="0 0 156 50" version="1.1" xmlns="http://www.w3.org/2000/svg" xmlns:xlink="http://www.w3.org/1999/xlink">
    <!-- Generator: Sketch 52.5 (67469) - http://www.bohemiancoding.com/sketch -->
    <title>百度指数LOGO</title>
    <desc>Created with Sketch.</desc>
    <defs>
        <polygon id="path-1" points="0.158752941 0.292708333 11.1659294 0.292708333 11.1659294 15.5474653 0.158752941 15.5474653 0.158752941 0.292708333"></polygon>
        <polygon id="path-3" points="0 49.7072917 155.824588 49.7072917 155.824588 0.347222222 0 0.347222222"></polygon>
    </defs>
    <g id="指数小程序" stroke="none" stroke-width="1" fill="none" fill-rule="evenodd">
        <g id="1-首页-数据报告-1" transform="translate(-110.000000, -117.000000)">
            <g id="百度指数LOGO/RGB" transform="translate(110.000000, 117.000000)">
                <g id="百度指数LOGO">
                    <path d="M61.4345294,26.3557292 C55.9388824,27.5098958 53.889,21.3116319 54.4904118,18.4157986 C54.4904118,18.4157986 55.1419412,12.1331597 59.6059412,11.7515625 C63.1473529,11.4526042 65.7608824,15.2244792 66.0284118,17.3862847 C66.1918235,18.7897569 66.9407647,25.2053819 61.4345294,26.3557292 Z" id="Fill-1" fill="#2932E1"></path>
                    <path d="M67.2846,37.5144792 C67.1215412,37.9651736 66.7633059,39.1176042 67.0746,40.1182986 C67.6901294,42.3762847 69.6958941,42.4724653 69.6958941,42.4724653 L72.5815412,42.4724653 L72.5815412,35.6019792 L69.4971882,35.6019792 C68.0991882,36.0078819 67.4370706,37.0620486 67.2846,37.5144792" id="Fill-3" fill="#2932E1"></path>
                    <g id="Group-7" transform="translate(66.000000, 0.054514)">
                        <mask id="mask-2" fill="white">
                            <use xlink:href="#path-1"></use>
                        </mask>
                        <g id="Clip-6"></g>
                        <path d="M5.66534118,15.5474653 C8.70310588,15.5474653 11.1659294,12.1353125 11.1659294,7.92211806 C11.1659294,3.7009375 8.70310588,0.292604167 5.66534118,0.292604167 C2.62404706,0.292604167 0.158752941,3.7009375 0.158752941,7.92211806 C0.158752941,12.1353125 2.62404706,15.5474653 5.66534118,15.5474653" id="Fill-5" fill="#2932E1" mask="url(#mask-2)"></path>
                    </g>
                    <path d="M84.7651765,16.1079167 C88.8377647,16.6169444 91.4463529,12.3895139 91.9658824,9.18395833 C92.4977647,5.98534722 89.8768235,2.27423611 86.9915294,1.62597222 C84.1058824,0.988472222 80.5108235,5.48708333 80.178,8.42145833 C79.7918824,12.0117361 80.7123529,15.5985417 84.7651765,16.1079167" id="Fill-8" fill="#2932E1"></path>
                    <path d="M89.2234941,45.1884375 L80.9833765,45.1884375 C77.7846706,44.3835764 77.6364353,42.1769792 77.6364353,42.1769792 L77.6364353,33.2974653 L80.9833765,33.2443403 L80.9833765,41.2242014 C81.1806706,42.0752431 82.2670235,42.2287153 82.2670235,42.2287153 L85.6665529,42.2287153 L85.6665529,33.2974653 L89.2234941,33.2974653 L89.2234941,45.1884375 Z M75.8830235,45.2367014 L68.7222,45.2367014 C65.6300824,44.6380903 64.3954941,42.5794097 64.2402,42.2287153 C64.0842,41.8759375 63.2156118,40.2214236 63.6786706,37.4148264 C65.0110235,33.1978125 68.8234941,32.8950347 68.8234941,32.8950347 L72.6356118,32.8950347 L72.6356118,28.3342708 L75.8830235,28.3804514 L75.8830235,45.2367014 Z M94.7300824,34.9429514 C94.7300824,34.9429514 88.4399647,30.1988542 84.7651412,25.0717708 C79.7918471,17.5182986 72.7083176,20.5919097 70.3478471,24.4356597 C67.9944353,28.2825347 64.3231412,30.7117014 63.7951412,31.3492014 C63.2696118,31.9884375 56.1917294,35.7089236 57.7669059,42.5009375 C59.3339647,49.2880903 64.8483176,49.1540625 64.8483176,49.1540625 C64.8483176,49.1540625 68.9138471,49.5443403 73.6242,48.5221181 C78.3462,47.4978125 82.4046706,48.7748958 82.4046706,48.7748958 C82.4046706,48.7748958 93.4213765,52.3669097 96.4333765,45.4498958 C99.4453765,38.5332292 94.7300824,34.9429514 94.7300824,34.9429514 Z" id="Fill-10" fill="#2932E1"></path>
                    <path d="M100.893988,21.4823958 C100.893988,19.9511458 99.5814,15.3386458 94.7298706,15.3386458 C89.8769294,15.3386458 89.2236353,19.6907292 89.2236353,22.7754514 C89.2236353,25.7073958 89.4763412,29.8174653 95.5155176,29.6876042 C101.549047,29.5594792 100.893988,23.0244097 100.893988,21.4823958" id="Fill-12" fill="#2932E1"></path>
                    <mask id="mask-4" fill="white">
                        <use xlink:href="#path-3"></use>
                    </mask>
                    <g id="Clip-15"></g>
                    <path d="M46.8554118,27.7732639 L52.3687059,27.7732639 L52.3687059,23.0423611 L46.8554118,23.0423611 L46.8554118,27.7732639 Z M46.8554118,48.4420139 L52.3687059,48.4420139 L52.3687059,29.8427083 L46.8554118,29.8427083 L46.8554118,48.4420139 Z" id="Fill-14" fill="#E30012" mask="url(#mask-4)"></path>
                    <path d="M37.8691765,29.8676042 L26.0883529,29.8321875 L26.0883529,33.7391319 L36.4175294,33.7391319 C36.4175294,33.7391319 38.8761176,34.3304514 38.8761176,35.8478125 L38.8761176,37.2314931 L29.5242353,37.2314931 C29.5242353,37.2314931 25.8494118,37.5557986 24.6695294,41.8349653 C24.4634118,43.8346181 24.7383529,44.8248958 24.8685882,45.1884375 C25.0094118,45.5603125 26.0883529,47.9165625 29.2923529,48.5130903 L44.1832941,48.5130903 L44.1832941,35.1853125 C44.1832941,35.1853125 43.4735294,30.6207292 37.8691765,29.8676042 Z M38.8761176,44.8287153 L31.3524706,44.8287153 C30.3388235,44.4276736 30.0024706,43.7745486 29.9336471,43.6120486 C29.8644706,43.4429514 29.6294118,42.8519792 29.9008235,42.2623958 C30.5124706,41.1117014 31.5229412,40.8485069 31.5229412,40.8485069 L38.8761176,40.8485069 L38.8761176,44.8287153 Z" id="Fill-16" fill="#E30012" mask="url(#mask-4)"></path>
                    <path d="M23.4526941,41.9186806 C23.6196353,37.3863889 19.4450471,35.8228472 19.4450471,35.8228472 C22.9748118,34.0242361 22.5262235,29.4971528 22.5262235,29.4971528 C22.1457529,22.5579167 13.4464588,22.8784028 13.4464588,22.8784028 L0.000105882353,22.8784028 L0.000105882353,48.7308333 L15.1804588,48.7308333 C24.1010471,48.7040972 23.4526941,41.9186806 23.4526941,41.9186806 M14.8801059,43.9238889 L14.8801059,43.9402083 L5.78198824,43.9402083 L5.78198824,38.3659028 L14.8292824,38.3659028 L15.1363412,38.4228472 C15.1363412,38.4228472 16.8601059,38.7290972 17.4865765,40.2356944 C17.4865765,40.2356944 17.8448118,41.6513194 17.0630471,42.7110417 C17.0630471,42.7110417 16.4874,43.6801389 14.8801059,43.9238889 M16.8096353,31.9405556 C16.8096353,31.9405556 16.1941059,33.0339583 14.5723412,33.2686806 L5.78198824,33.2686806 L5.78198824,27.919375 L14.5324588,27.919375 C14.5324588,27.919375 16.4404588,27.8374306 17.0630471,29.3103472 C17.0630471,29.3103472 17.4431647,30.8704167 16.8096353,31.9405556" id="Fill-17" fill="#E30012" mask="url(#mask-4)"></path>
                    <path d="M117.195812,45.6982639 L123.784165,45.6982639 C124.3044,45.6982639 124.565929,45.4784722 124.565929,45.0392361 L124.565929,43.940625 L117.195812,43.940625 L117.195812,45.6982639 Z M117.195812,40.8642361 L124.565929,40.8642361 L124.565929,38.8868056 L117.195812,38.8868056 L117.195812,40.8642361 Z M113.398871,35.5913194 L128.250988,35.5913194 L128.250988,46.1378472 C128.4744,47.9677083 127.357694,48.8104167 124.900871,48.6645833 L113.398871,48.6645833 L113.398871,35.5913194 Z M113.287341,32.1854167 L113.287341,23.8361111 L117.195812,23.8361111 L117.195812,25.3739583 L128.250988,25.3739583 L128.250988,28.5600694 L117.195812,28.5600694 L117.195812,30.8670139 C117.120635,31.3802083 117.344047,31.6 117.865694,31.5263889 L128.250988,31.5263889 L128.250988,34.7121528 L116.637459,34.7121528 C114.180635,34.8597222 113.063929,34.0170139 113.287341,32.1854167 Z M107.480753,25.8135417 L107.480753,23.7260417 L111.388871,23.7260417 L111.388871,25.7038194 L112.840518,25.7038194 L112.840518,28.7795139 L111.388871,28.7795139 L111.388871,30.3177083 L112.728988,30.3177083 L112.728988,33.5038194 L111.388871,33.5038194 L111.388871,46.0277778 C111.238871,47.7857639 110.085459,48.7364583 107.927224,48.884375 L103.683812,48.884375 L103.683812,45.6982639 L106.810518,45.6982639 C107.3304,45.771875 107.592282,45.4784722 107.592282,44.8194444 L107.592282,41.3038194 L106.587106,43.28125 C106.213694,43.8684028 105.431929,44.1600694 104.242165,44.1600694 L102.902047,44.1600694 L102.902047,41.3038194 L103.683812,41.3038194 C103.907224,41.3038194 104.278518,40.6447917 104.800518,39.3263889 L107.592282,31.4163194 L107.592282,28.8895833 L103.013576,28.8895833 L103.013576,25.8135417 L107.480753,25.8135417 Z" id="Fill-18" fill="#E30012" mask="url(#mask-4)"></path>
                    <path d="M148.2312,31.3065278 L149.906259,35.8106944 L151.692847,29.988125 L155.489435,29.988125 L151.692847,41.5235417 L153.367906,45.5884722 C153.516494,45.9558333 153.814376,46.1377778 154.2612,46.1377778 L155.712847,46.1377778 L155.712847,48.7745833 L152.362729,48.7745833 C151.469435,48.700625 150.947788,48.335 150.7992,47.6759722 L150.017788,45.9179861 L149.347906,47.6759722 C149.197553,48.4808333 148.6392,48.8464583 147.672847,48.7745833 L144.210847,48.7745833 L144.210847,46.2475 L145.885906,46.2475 C146.034141,46.2475 146.182376,46.1738889 146.332729,46.0277083 L148.007788,41.0843056 L144.434259,31.3065278 L148.2312,31.3065278 Z M144.099318,29.8784028 L144.099318,26.6922917 L144.657671,26.6922917 C145.104494,26.76625 145.400612,26.4728472 145.550965,25.8134722 L145.774376,23.5065278 L149.347906,23.5065278 L149.236376,25.044375 L155.824729,25.044375 L155.824729,28.3405556 L148.678024,28.3405556 L148.342729,28.9992361 C148.044494,29.6586111 147.337906,29.9523611 146.2212,29.8784028 L144.099318,29.8784028 Z M143.652494,35.8106944 L141.754024,35.8106944 C140.637318,35.8846528 140.004141,35.3714583 139.855906,34.2728472 L139.185671,30.8669444 L142.089318,30.8669444 L142.424259,32.7346528 C142.424259,33.3218056 142.832612,33.5777083 143.652494,33.50375 L143.652494,35.8106944 Z M137.2872,44.0502778 L139.520612,42.2926389 L139.520612,41.0843056 L134.272376,41.0843056 L134.272376,42.0728472 L137.2872,44.0502778 Z M130.698847,35.8106944 L130.698847,33.6138194 C131.369082,33.6874306 131.740376,33.3579167 131.815553,32.6249306 L132.150494,30.7572222 L135.054141,30.7572222 L134.384259,34.3825694 C134.309082,35.4089583 133.825906,35.8846528 132.932259,35.8106944 L130.698847,35.8106944 Z M131.145671,41.0843056 L130.587318,41.0843056 L130.587318,38.0079167 L131.145671,38.0079167 L131.145671,36.9093056 L134.272376,36.9093056 L134.272376,38.0079167 L139.520612,38.0079167 L139.520612,36.7995833 L142.647671,36.7995833 L142.647671,38.0079167 L143.652494,38.0079167 L143.652494,41.0843056 L142.647671,41.0843056 L142.647671,43.2811806 L139.855906,45.6981944 L140.525788,46.1377778 C140.822612,46.2836111 141.084141,46.3575694 141.307553,46.3575694 L143.652494,46.3575694 L143.652494,48.7745833 L140.078965,48.7745833 C139.482494,48.700625 138.999318,48.5547917 138.627318,48.335 L137.2872,47.4561806 L135.947082,48.335 C135.350612,48.6266667 134.792259,48.7745833 134.272376,48.7745833 L130.587318,48.7745833 L130.587318,46.3575694 L133.490612,46.3575694 C133.787082,46.2836111 134.010494,46.2096528 134.160847,46.1377778 L134.7192,46.0277083 L131.145671,43.7207639 L131.145671,41.0843056 Z M134.048965,23.8360417 L134.160847,26.4728472 L135.389082,26.4728472 L135.389082,23.3964583 L138.738847,23.3964583 L138.738847,26.4728472 L140.078965,26.4728472 L140.190847,23.8360417 L142.7592,23.8360417 L142.647671,26.4728472 L143.429435,26.4728472 L143.429435,29.7683333 L138.738847,29.7683333 L138.738847,36.2502778 L135.389082,36.2502778 L135.389082,29.7683333 L130.587318,29.7683333 L130.587318,26.4728472 L131.480612,26.4728472 L131.369082,23.8360417 L134.048965,23.8360417 Z" id="Fill-19" fill="#E30012" mask="url(#mask-4)"></path>
                </g>
            </g>
        </g>
    </g>
</svg>